<mxfile host="app.diagrams.net" modified="2023-07-13T17:57:50.098Z" agent="Mozilla/5.0 (Windows NT 10.0; Win64; x64) AppleWebKit/537.36 (KHTML, like Gecko) Chrome/114.0.0.0 Safari/537.36" etag="cjzz9Iw1TYFV8YZhS_OF" version="21.3.4" type="device">
  <diagram name="Index" id="03018318-947c-dd8e-b7a3-06fadd420f32">
    <mxGraphModel dx="2074" dy="1059" grid="1" gridSize="10" guides="1" tooltips="1" connect="1" arrows="1" fold="1" page="1" pageScale="1" pageWidth="1100" pageHeight="850" background="none" math="0" shadow="0">
      <root>
        <mxCell id="0" />
        <mxCell id="1" parent="0" />
        <mxCell id="pczFL7EBJ7Z1fPpIKq4B-1" value="" style="strokeWidth=1;shadow=0;dashed=0;align=center;html=1;shape=mxgraph.mockup.containers.browserWindow;rSize=0;strokeColor=#666666;strokeColor2=#008cff;strokeColor3=#c4c4c4;mainText=,;recursiveResize=0;" vertex="1" parent="1">
          <mxGeometry y="60" width="1100" height="850" as="geometry" />
        </mxCell>
        <mxCell id="pczFL7EBJ7Z1fPpIKq4B-2" value="Page 1" style="strokeWidth=1;shadow=0;dashed=0;align=center;html=1;shape=mxgraph.mockup.containers.anchor;fontSize=17;fontColor=#666666;align=left;whiteSpace=wrap;" vertex="1" parent="pczFL7EBJ7Z1fPpIKq4B-1">
          <mxGeometry x="60" y="12" width="110" height="26" as="geometry" />
        </mxCell>
        <mxCell id="pczFL7EBJ7Z1fPpIKq4B-3" value="https://www.draw.io" style="strokeWidth=1;shadow=0;dashed=0;align=center;html=1;shape=mxgraph.mockup.containers.anchor;rSize=0;fontSize=17;fontColor=#666666;align=left;" vertex="1" parent="pczFL7EBJ7Z1fPpIKq4B-1">
          <mxGeometry x="130" y="60" width="250" height="26" as="geometry" />
        </mxCell>
        <mxCell id="pczFL7EBJ7Z1fPpIKq4B-4" value="" style="strokeWidth=1;shadow=0;dashed=0;align=center;html=1;shape=mxgraph.mockup.forms.rrect;rSize=0;strokeColor=#999999;fillColor=#ffffff;" vertex="1" parent="pczFL7EBJ7Z1fPpIKq4B-1">
          <mxGeometry x="400" y="310" width="330" height="240" as="geometry" />
        </mxCell>
        <mxCell id="pczFL7EBJ7Z1fPpIKq4B-5" value="Sign In" style="strokeWidth=1;shadow=0;dashed=0;align=center;html=1;shape=mxgraph.mockup.forms.anchor;fontSize=12;fontColor=#666666;align=left;resizeWidth=1;spacingLeft=0;" vertex="1" parent="pczFL7EBJ7Z1fPpIKq4B-4">
          <mxGeometry width="165" height="20" relative="1" as="geometry">
            <mxPoint x="10" y="10" as="offset" />
          </mxGeometry>
        </mxCell>
        <mxCell id="pczFL7EBJ7Z1fPpIKq4B-6" value="" style="shape=line;strokeColor=#ddeeff;strokeWidth=2;html=1;resizeWidth=1;" vertex="1" parent="pczFL7EBJ7Z1fPpIKq4B-4">
          <mxGeometry width="297" height="10" relative="1" as="geometry">
            <mxPoint x="10" y="30" as="offset" />
          </mxGeometry>
        </mxCell>
        <mxCell id="pczFL7EBJ7Z1fPpIKq4B-7" value="User Name:" style="strokeWidth=1;shadow=0;dashed=0;align=center;html=1;shape=mxgraph.mockup.forms.anchor;fontSize=12;fontColor=#666666;align=left;resizeWidth=1;spacingLeft=0;" vertex="1" parent="pczFL7EBJ7Z1fPpIKq4B-4">
          <mxGeometry width="165" height="20" relative="1" as="geometry">
            <mxPoint x="10" y="40" as="offset" />
          </mxGeometry>
        </mxCell>
        <mxCell id="pczFL7EBJ7Z1fPpIKq4B-8" value="johndoe" style="strokeWidth=1;shadow=0;dashed=0;align=center;html=1;shape=mxgraph.mockup.forms.rrect;rSize=0;strokeColor=#999999;fontColor=#666666;align=left;spacingLeft=5;resizeWidth=1;" vertex="1" parent="pczFL7EBJ7Z1fPpIKq4B-4">
          <mxGeometry width="247.5" height="25" relative="1" as="geometry">
            <mxPoint x="10" y="60" as="offset" />
          </mxGeometry>
        </mxCell>
        <mxCell id="pczFL7EBJ7Z1fPpIKq4B-9" value="Password:" style="strokeWidth=1;shadow=0;dashed=0;align=center;html=1;shape=mxgraph.mockup.forms.anchor;fontSize=12;fontColor=#666666;align=left;resizeWidth=1;spacingLeft=0;" vertex="1" parent="pczFL7EBJ7Z1fPpIKq4B-4">
          <mxGeometry width="165" height="20" relative="1" as="geometry">
            <mxPoint x="10" y="95" as="offset" />
          </mxGeometry>
        </mxCell>
        <mxCell id="pczFL7EBJ7Z1fPpIKq4B-10" value="********" style="strokeWidth=1;shadow=0;dashed=0;align=center;html=1;shape=mxgraph.mockup.forms.rrect;rSize=0;strokeColor=#999999;fontColor=#666666;align=left;spacingLeft=5;resizeWidth=1;" vertex="1" parent="pczFL7EBJ7Z1fPpIKq4B-4">
          <mxGeometry width="247.5" height="25" relative="1" as="geometry">
            <mxPoint x="10" y="115" as="offset" />
          </mxGeometry>
        </mxCell>
        <mxCell id="pczFL7EBJ7Z1fPpIKq4B-11" value="SIGN IN" style="strokeWidth=1;shadow=0;dashed=0;align=center;html=1;shape=mxgraph.mockup.forms.rrect;rSize=5;strokeColor=none;fontColor=#ffffff;fillColor=#66bbff;fontSize=16;fontStyle=1;" vertex="1" parent="pczFL7EBJ7Z1fPpIKq4B-4">
          <mxGeometry y="1" width="80" height="30" relative="1" as="geometry">
            <mxPoint x="10" y="-60" as="offset" />
          </mxGeometry>
        </mxCell>
        <mxCell id="pczFL7EBJ7Z1fPpIKq4B-12" value="Forgot Password?" style="strokeWidth=1;shadow=0;dashed=0;align=center;html=1;shape=mxgraph.mockup.forms.anchor;fontSize=12;fontColor=#9999ff;align=left;spacingLeft=0;fontStyle=4;resizeWidth=1;" vertex="1" parent="pczFL7EBJ7Z1fPpIKq4B-4">
          <mxGeometry y="1" width="247.5" height="20" relative="1" as="geometry">
            <mxPoint x="10" y="-20" as="offset" />
          </mxGeometry>
        </mxCell>
        <mxCell id="pczFL7EBJ7Z1fPpIKq4B-13" value="" style="shape=line;strokeColor=#ddeeff;strokeWidth=2;html=1;resizeWidth=1;" vertex="1" parent="pczFL7EBJ7Z1fPpIKq4B-4">
          <mxGeometry y="1" width="297" height="10" relative="1" as="geometry">
            <mxPoint x="10" y="-75" as="offset" />
          </mxGeometry>
        </mxCell>
        <mxCell id="pczFL7EBJ7Z1fPpIKq4B-16" value="Logo da Empresa" style="rounded=0;whiteSpace=wrap;html=1;" vertex="1" parent="pczFL7EBJ7Z1fPpIKq4B-1">
          <mxGeometry x="860" y="130" width="210" height="80" as="geometry" />
        </mxCell>
        <mxCell id="pczFL7EBJ7Z1fPpIKq4B-17" value="Gandalf.Inc BackOffice" style="text;html=1;strokeColor=none;fillColor=none;align=center;verticalAlign=middle;whiteSpace=wrap;rounded=0;fontSize=30;" vertex="1" parent="pczFL7EBJ7Z1fPpIKq4B-1">
          <mxGeometry x="10" y="130" width="420" height="80" as="geometry" />
        </mxCell>
      </root>
    </mxGraphModel>
  </diagram>
</mxfile>
